<?xml version="1.0" standalone="no"?>
<!DOCTYPE svg PUBLIC "-//W3C//DTD SVG 20010904//EN"
 "http://www.w3.org/TR/2001/REC-SVG-20010904/DTD/svg10.dtd">
<svg version="1.0" xmlns="http://www.w3.org/2000/svg"
 width="1017.000000pt" height="1017.000000pt" viewBox="0 0 1017.000000 1017.000000"
 preserveAspectRatio="xMidYMid meet">
<metadata>
Created by potrace 1.11, written by Peter Selinger 2001-2013
</metadata>
<g transform="translate(0.000000,1017.000000) scale(0.100000,-0.100000)"
fill="#000000" stroke="none">
<path d="M2040 4985 l0 -4035 703 2 702 3 5 1405 5 1405 873 3 c537 1 880 -2
891 -7 10 -6 39 -41 64 -78 26 -37 71 -102 100 -143 75 -106 239 -338 437
-620 33 -47 86 -122 117 -166 32 -45 82 -117 112 -160 30 -44 67 -95 81 -114
26 -34 87 -120 457 -645 165 -233 224 -318 376 -535 32 -47 100 -143 151 -215
l93 -130 831 -3 c803 -2 832 -1 832 16 0 15 -286 427 -413 597 -13 17 -64 89
-115 160 -166 235 -390 549 -423 595 -19 25 -120 167 -226 315 -106 149 -196
275 -201 280 -4 6 -27 37 -50 70 -22 33 -69 98 -103 145 -35 47 -83 115 -108
151 -25 37 -145 205 -266 374 -121 168 -224 312 -229 319 -18 26 4 44 96 74
428 139 818 366 1092 636 269 265 416 497 559 882 22 59 63 213 86 329 69 337
67 789 -4 1145 -25 121 -82 322 -111 387 -8 17 -14 34 -14 38 0 14 -103 228
-150 310 -107 189 -310 430 -480 571 -303 249 -685 438 -1115 549 -100 26
-247 57 -305 65 -100 14 -303 38 -405 49 -68 8 -711 11 -2022 11 l-1923 0 0
-4035z m3625 2744 c394 -31 633 -88 862 -209 180 -94 311 -203 417 -345 104
-139 164 -275 208 -475 20 -91 23 -133 23 -310 0 -179 -3 -219 -23 -310 -24
-106 -70 -232 -119 -325 -80 -151 -239 -326 -390 -428 -74 -51 -252 -145 -299
-160 -11 -3 -46 -15 -79 -27 -108 -40 -252 -74 -385 -92 -46 -7 -526 -12
-1252 -14 l-1178 -4 0 1345 0 1346 23 9 c33 13 2020 13 2192 -1z"/>
</g>
</svg>
